# xmcd CD database file
#
# Track frame offsets:
#	150
#	20847
#	43022
#	66067
#	90730
#	112102
#	127392
#	143767
#	158140
#	174817
#
# Disc length: 2580 seconds
#
# Revision: 3
# Processed by: cddbd v1.5.2PL0 Copyright (c) Steve Scherf et al.
# Submitted via: CDex 1.70beta2
#
DISCID=8b0a120a
DTITLE=八神純子 - YAGAMI JUNKO THE BEST
DYEAR=1980
DGENRE=JPop
TTITLE0=うまくいかなくても
TTITLE1=愛色の季節
TTITLE2=Be My Best Friend
TTITLE3=私の歌の心の世界
TTITLE4=甘い生活
TTITLE5=みずいろの雨
TTITLE6=時の流れに
TTITLE7=思い出は美しすぎて
TTITLE8=想い出のスクリーン
TTITLE9=パープルタウン ～You Oughta Know By Now
EXTD=YEAR: 1980
EXTT0=
EXTT1=
EXTT2=
EXTT3=
EXTT4=
EXTT5=
EXTT6=
EXTT7=
EXTT8=
EXTT9=
PLAYORDER=
